<?xml version="1.0" standalone="no"?>
<!DOCTYPE svg PUBLIC "-//W3C//DTD SVG 20010904//EN"
 "http://www.w3.org/TR/2001/REC-SVG-20010904/DTD/svg10.dtd">
<svg version="1.0" xmlns="http://www.w3.org/2000/svg"
 width="4640.000000pt" height="1873.000000pt" viewBox="0 0 4640.000000 1873.000000"
 preserveAspectRatio="xMidYMid meet">
<metadata>
Created by potrace 1.16, written by Peter Selinger 2001-2019
</metadata>
<g transform="translate(0.000000,1873.000000) scale(0.100000,-0.100000)"
fill="#000000" stroke="none">
<path d="M39655 18702 c-27 -15 -151 -103 -275 -194 -189 -140 -309 -242 -750
-638 l-525 -471 -37 -107 c-61 -178 -70 -317 -27 -404 24 -47 64 -68 129 -68
74 0 133 32 221 119 85 86 145 166 236 320 35 58 87 136 116 172 58 75 35 66
246 85 l73 7 -333 -382 c-217 -249 -335 -391 -337 -408 -6 -41 27 -167 59
-232 34 -69 73 -106 127 -120 35 -10 38 -9 80 32 25 23 384 401 799 841 l755
799 -4 101 c-5 116 -20 156 -68 176 -52 22 -92 4 -390 -168 -106 -61 -346
-203 -399 -235 -32 -19 311 325 386 387 69 58 122 342 74 400 -22 26 -98 20
-156 -12z"/>
<path d="M43327 17960 c-170 -70 -229 -174 -158 -281 27 -40 249 -254 579
-558 67 -63 122 -115 122 -116 0 -2 -138 71 -307 161 l-308 163 -80 -10 c-184
-22 -285 -77 -285 -153 0 -81 51 -132 371 -369 218 -162 285 -205 895 -565
362 -214 670 -394 683 -401 19 -11 46 -11 135 -2 231 24 354 79 407 183 60
118 -19 268 -189 356 -125 65 -294 115 -479 142 -37 5 -106 24 -152 42 l-84
33 -64 149 c-34 82 -62 150 -60 151 1 1 231 -95 511 -212 l509 -214 54 37 c71
49 164 150 194 210 17 35 25 71 27 124 l4 75 -94 47 c-133 67 -2150 1019
-2168 1024 -8 2 -36 -5 -63 -16z"/>
<path d="M42990 15889 c-271 -35 -542 -136 -773 -288 -304 -201 -605 -532
-822 -903 -21 -38 -42 -68 -46 -68 -3 0 -32 33 -63 73 -187 236 -443 482 -672
644 -543 386 -1110 492 -1658 312 -326 -107 -649 -319 -962 -633 -175 -176
-250 -267 -385 -469 -282 -424 -455 -908 -535 -1499 -18 -135 -30 -654 -17
-779 l9 -87 -51 -11 c-28 -6 -97 -34 -153 -62 -251 -123 -366 -327 -332 -593
13 -108 26 -134 104 -211 85 -85 140 -109 241 -109 93 0 145 20 222 87 32 29
45 36 39 22 -4 -11 -10 -101 -13 -200 -25 -786 269 -1557 850 -2230 120 -140
384 -398 507 -496 613 -492 1273 -569 1965 -229 346 170 747 497 1021 833 l32
39 82 -124 c499 -744 1131 -1199 1854 -1333 635 -117 1195 -2 1654 339 489
364 865 1006 1069 1829 39 156 50 187 65 187 16 0 18 10 18 75 l0 75 69 0 69
0 7 157 c11 234 -1 996 -20 1228 -158 1991 -756 3352 -1761 4009 -329 215
-767 374 -1146 415 -111 13 -372 12 -468 0z m-2615 -4090 c94 -5 198 -12 233
-15 l62 -6 0 -72 c0 -119 20 -245 60 -373 34 -114 36 -123 19 -128 -40 -13
-167 -105 -215 -156 -98 -104 -138 -207 -137 -349 1 -148 43 -274 119 -359 87
-96 213 -150 318 -136 121 16 234 82 366 214 56 56 93 83 147 108 67 31 279
90 289 80 2 -2 -1 -28 -7 -58 -25 -115 8 -272 82 -395 103 -170 284 -318 462
-378 240 -80 495 -6 713 209 160 158 254 376 254 590 l0 77 103 -7 c585 -37
989 -71 1482 -126 l279 -31 534 -198 c294 -109 536 -201 539 -204 15 -15 -83
-421 -152 -631 -135 -414 -331 -788 -558 -1070 -92 -114 -286 -298 -397 -377
-124 -88 -337 -196 -475 -241 -191 -62 -357 -86 -588 -87 -279 0 -495 33 -748
116 -602 198 -1147 672 -1562 1359 -153 254 -291 552 -426 918 -46 125 -79
197 -91 197 -5 0 -34 -11 -65 -25 l-56 -24 17 -38 c31 -73 56 -139 101 -263
78 -214 139 -354 288 -652 l48 -97 -25 -38 c-70 -106 -344 -383 -519 -525
-142 -116 -338 -242 -494 -319 -607 -301 -1191 -245 -1739 165 -261 196 -586
537 -793 833 -410 588 -612 1251 -572 1884 8 137 23 251 34 269 7 11 266 97
405 134 182 49 650 146 704 146 6 0 19 -28 29 -63 10 -34 29 -84 42 -112 12
-27 35 -81 50 -120 100 -254 276 -474 448 -558 119 -59 233 -78 339 -56 198
42 352 216 465 529 39 107 97 336 108 424 l7 57 152 -6 c83 -3 228 -10 321
-16z"/>
<path d="M24611 12272 c6 -17 10 -1061 12 -2849 l2 -2822 21 -28 c53 -71 67
-72 524 -60 189 5 393 5 535 -1 309 -14 355 -4 400 84 20 39 20 59 20 2844 0
1543 4 2817 9 2833 l8 27 -770 0 -771 0 10 -28z"/>
<path d="M2916 11879 c-549 -56 -1204 -278 -1649 -557 -598 -375 -1001 -922
-1192 -1616 -35 -131 -49 -166 -65 -166 -6 0 -10 -160 -10 -429 0 -377 2 -430
16 -442 26 -21 42 -61 49 -124 24 -208 172 -564 340 -815 190 -286 414 -501
768 -738 906 -606 1925 -774 3072 -507 277 64 365 94 408 136 l37 37 0 776 0
776 -28 0 c-20 0 -61 -24 -136 -80 -480 -356 -959 -483 -1526 -404 -403 56
-694 194 -947 451 -199 201 -329 459 -364 720 -17 126 -6 413 19 523 90 386
314 693 647 884 155 88 406 175 650 223 70 14 140 18 310 18 252 0 354 -15
569 -86 223 -73 538 -248 670 -373 42 -40 54 -46 92 -46 l44 0 0 769 c0 764 0
768 -21 795 -30 38 -53 48 -269 109 -280 79 -456 117 -710 153 -136 19 -638
27 -774 13z"/>
<path d="M21700 10204 c-14 -2 -65 -9 -115 -15 -183 -22 -439 -100 -647 -197
-99 -46 -147 -77 -271 -175 -48 -38 -90 -67 -93 -65 -2 3 -9 54 -14 113 -11
129 -30 172 -83 199 -37 17 -75 19 -655 20 -363 1 -629 -2 -647 -7 -41 -13
-82 -53 -97 -96 -10 -26 -13 -126 -13 -376 0 -187 1 -1360 3 -2607 l2 -2268
745 0 745 0 0 1030 c0 567 2 1030 5 1030 3 0 30 -18 59 -39 232 -172 517 -285
846 -337 166 -27 628 -27 784 -1 894 151 1561 809 1656 1632 40 350 -23 742
-166 1045 -255 537 -866 972 -1534 1091 -109 20 -443 35 -510 23z m31 -1147
c227 -59 400 -177 516 -352 141 -211 172 -426 95 -650 -94 -271 -297 -456
-577 -527 -80 -20 -114 -23 -315 -23 -200 0 -235 3 -313 23 -539 136 -785 680
-516 1140 46 78 199 230 278 276 116 67 247 112 396 136 107 16 328 5 436 -23z"/>
<path d="M16525 10190 c-225 -23 -414 -77 -610 -175 -169 -84 -290 -172 -446
-323 l-127 -122 -43 56 c-23 31 -79 90 -123 131 -571 531 -1620 583 -2317 115
-57 -39 -137 -101 -177 -138 l-73 -67 3 166 c3 155 2 167 -18 194 -43 59 -21
57 -724 57 -729 -1 -694 3 -731 -77 -18 -41 -19 -93 -19 -1715 0 -1837 -4
-1722 61 -1761 30 -18 57 -19 688 -19 719 0 695 -2 727 60 15 28 16 118 15
929 -1 619 2 932 10 1006 38 359 171 576 399 653 92 32 315 40 423 16 153 -34
277 -125 344 -251 110 -209 143 -635 124 -1628 -11 -581 -8 -663 29 -723 38
-61 74 -70 255 -64 200 6 686 6 905 0 188 -5 224 4 260 62 41 68 43 111 31
702 -14 768 4 1220 60 1431 80 306 284 457 619 459 74 0 147 -5 180 -13 192
-48 317 -184 380 -415 54 -196 53 -173 57 -1185 3 -1055 -2 -986 73 -1023 32
-17 86 -18 685 -18 632 0 651 1 683 20 18 11 36 30 41 43 12 31 21 1987 10
2182 -21 384 -76 640 -183 852 -120 239 -298 397 -540 479 -235 80 -678 129
-931 104z"/>
<path d="M7078 10180 c-391 -46 -776 -207 -1071 -448 -105 -86 -282 -274 -360
-383 -84 -118 -203 -353 -245 -484 -149 -466 -115 -937 98 -1370 99 -202 209
-353 384 -527 319 -318 697 -498 1164 -553 701 -84 1188 53 1640 459 l23 20
-15 -41 c-8 -22 -19 -73 -26 -114 -19 -119 12 -197 88 -219 25 -8 242 -10 679
-8 l642 3 30 29 c20 19 33 44 39 75 5 26 8 781 7 1701 -1 1492 -3 1658 -17
1685 -20 37 -45 60 -78 70 -37 12 -1227 14 -1274 3 -86 -21 -133 -108 -123
-225 4 -35 4 -63 2 -63 -2 0 -38 20 -79 45 -130 79 -360 184 -513 234 -269 89
-475 122 -751 120 -97 -1 -207 -5 -244 -9z m997 -1124 c322 -84 548 -301 625
-600 42 -165 20 -340 -64 -511 -95 -192 -241 -317 -446 -383 -137 -44 -233
-56 -455 -56 -184 0 -220 3 -290 22 -246 67 -449 242 -530 457 -80 211 -73
432 20 620 82 167 194 278 368 365 178 90 324 121 532 116 109 -3 162 -10 240
-30z"/>
<path d="M28725 10174 c-645 -72 -1228 -329 -1529 -672 -351 -400 -507 -1039
-395 -1619 83 -433 322 -803 668 -1035 265 -177 697 -344 1096 -422 195 -38
328 -50 575 -50 309 0 474 20 772 95 305 76 676 228 855 350 167 115 320 297
423 507 85 171 98 246 47 273 -16 9 -186 12 -677 12 -752 0 -679 10 -795 -103
-38 -38 -96 -85 -129 -104 -204 -123 -591 -152 -856 -65 -195 63 -361 199
-439 359 -49 101 -84 230 -76 280 7 41 20 60 58 85 26 17 96 17 1466 16 982
-2 1452 1 1479 8 72 20 77 33 76 200 -3 479 -157 904 -444 1226 -313 351 -726
554 -1315 647 -174 27 -664 34 -860 12z m670 -838 c222 -60 399 -188 508 -368
48 -80 47 -115 -3 -141 -33 -16 -86 -17 -788 -15 l-754 3 -24 28 c-18 21 -22
35 -18 55 19 84 160 252 269 321 166 105 328 143 590 137 106 -3 180 -9 220
-20z"/>
<path d="M32047 10075 c-17 -5 -40 -23 -51 -38 l-21 -28 0 -1132 c0 -1028 2
-1143 18 -1247 25 -168 61 -291 121 -415 63 -130 117 -205 223 -306 255 -244
702 -416 1288 -496 152 -20 680 -29 888 -14 634 46 1036 151 1338 353 124 82
287 245 368 367 149 226 242 495 185 541 -8 8 -20 22 -26 33 -7 14 -10 391 -9
1203 l2 1184 -543 3 c-813 3 -789 4 -826 -12 -18 -7 -43 -28 -55 -45 l-22 -31
-2 -933 c-1 -593 -5 -978 -13 -1056 -18 -207 -61 -326 -151 -421 -63 -67 -132
-100 -294 -141 -481 -121 -794 -10 -928 327 -74 186 -79 262 -76 1324 2 998 6
947 -62 975 -26 11 -165 14 -677 14 -405 1 -656 -3 -675 -9z"/>
<path d="M37197 5973 c-3 -5 -7 -33 -11 -63 l-7 -55 378 -49 c208 -27 379 -49
380 -50 6 -5 -70 -320 -105 -438 -124 -409 -284 -672 -457 -743 -34 -15 -45
-14 -198 19 -813 177 -1443 209 -1915 95 -103 -25 -102 -25 -76 -103 12 -35
20 -45 33 -42 571 167 1449 83 2601 -249 460 -133 924 -292 1355 -465 253
-102 570 -201 879 -275 750 -180 1169 -161 1293 60 25 45 28 59 27 140 0 72
-6 105 -28 165 -74 198 -295 503 -528 725 -546 524 -1288 893 -2278 1134 -244
60 -266 64 -857 141 -506 66 -480 63 -486 53z"/>
</g>
</svg>
